<svg id="SvgjsSvg1272" width="1484.3990795428936" height="721.0577159661514" xmlns="http://www.w3.org/2000/svg" version="1.1" xmlns:xlink="http://www.w3.org/1999/xlink" xmlns:svgjs="http://svgjs.com/svgjs"><defs id="SvgjsDefs1273"></defs><rect id="svgbackgroundid" width="1484.3990795428936" height="721.0577159661514" fill="#ffffff"></rect><g id="SvgjsG1275" transform="translate(25.020203810471756,172.00192777927106)"><path id="SvgjsPath1276" d="M 0 4Q 0 0 4 0L 92 0Q 96 0 96 4L 96 50Q 96 54 92 54L 4 54Q 0 54 0 50Z" stroke="rgba(33,41,48,1)" stroke-width="2" fill-opacity="1" fill="#ffffff"></path><g id="SvgjsG1277"><text id="SvgjsText1278" font-family="微软雅黑" text-anchor="middle" font-size="13px" width="76px" fill="#323232" font-weight="400" align="middle" lineHeight="125%" anchor="middle" family="微软雅黑" size="13px" weight="400" font-style="" opacity="1" y="16.375" transform="rotate(0)"><tspan id="SvgjsTspan1279" dy="16" x="48"><tspan id="SvgjsTspan1280" style="text-decoration:;">arr</tspan></tspan></text></g></g><g id="SvgjsG1281" transform="translate(493.62020991398737,486.00192777927106)"><path id="SvgjsPath1282" d="M 0 4Q 0 0 4 0L 92 0Q 96 0 96 4L 96 50Q 96 54 92 54L 4 54Q 0 54 0 50Z" stroke="rgba(33,41,48,1)" stroke-width="2" fill-opacity="1" fill="#ffffff"></path><g id="SvgjsG1283"><text id="SvgjsText1284" font-family="微软雅黑" text-anchor="middle" font-size="13px" width="76px" fill="#323232" font-weight="400" align="middle" lineHeight="125%" anchor="middle" family="微软雅黑" size="13px" weight="400" font-style="" opacity="1" y="16.375" transform="rotate(0)"><tspan id="SvgjsTspan1285" dy="16" x="48"><tspan id="SvgjsTspan1286" style="text-decoration:;">run_client</tspan></tspan></text></g></g><g id="SvgjsG1287" transform="translate(25.020203810471756,250.50192777927106)"><path id="SvgjsPath1288" d="M 0 4Q 0 0 4 0L 92 0Q 96 0 96 4L 96 50Q 96 54 92 54L 4 54Q 0 54 0 50Z" stroke="rgba(33,41,48,1)" stroke-width="2" fill-opacity="1" fill="#ffffff"></path><g id="SvgjsG1289"><text id="SvgjsText1290" font-family="微软雅黑" text-anchor="middle" font-size="13px" width="76px" fill="#323232" font-weight="400" align="middle" lineHeight="125%" anchor="middle" family="微软雅黑" size="13px" weight="400" font-style="" opacity="1" y="16.375" transform="rotate(0)"><tspan id="SvgjsTspan1291" dy="16" x="48"><tspan id="SvgjsTspan1292" style="text-decoration:;">conf</tspan></tspan></text></g></g><g id="SvgjsG1293" transform="translate(25.020203810471756,329.00192777927106)"><path id="SvgjsPath1294" d="M 0 4Q 0 0 4 0L 92 0Q 96 0 96 4L 96 50Q 96 54 92 54L 4 54Q 0 54 0 50Z" stroke="rgba(33,41,48,1)" stroke-width="2" fill-opacity="1" fill="#ffffff"></path><g id="SvgjsG1295"><text id="SvgjsText1296" font-family="微软雅黑" text-anchor="middle" font-size="13px" width="76px" fill="#323232" font-weight="400" align="middle" lineHeight="125%" anchor="middle" family="微软雅黑" size="13px" weight="400" font-style="" opacity="1" y="16.375" transform="rotate(0)"><tspan id="SvgjsTspan1297" dy="16" x="48"><tspan id="SvgjsTspan1298" style="text-decoration:;">filed</tspan></tspan></text></g></g><g id="SvgjsG1299" transform="translate(25.020203810471756,407.50192777927106)"><path id="SvgjsPath1300" d="M 0 4Q 0 0 4 0L 92 0Q 96 0 96 4L 96 50Q 96 54 92 54L 4 54Q 0 54 0 50Z" stroke="rgba(33,41,48,1)" stroke-width="2" fill-opacity="1" fill="#ffffff"></path><g id="SvgjsG1301"><text id="SvgjsText1302" font-family="微软雅黑" text-anchor="middle" font-size="13px" width="76px" fill="#323232" font-weight="400" align="middle" lineHeight="125%" anchor="middle" family="微软雅黑" size="13px" weight="400" font-style="" opacity="1" y="16.375" transform="rotate(0)"><tspan id="SvgjsTspan1303" dy="16" x="48"><tspan id="SvgjsTspan1304" style="text-decoration:;">global</tspan></tspan></text></g></g><g id="SvgjsG1305" transform="translate(25.020203810471756,486.00192777927106)"><path id="SvgjsPath1306" d="M 0 4Q 0 0 4 0L 92 0Q 96 0 96 4L 96 50Q 96 54 92 54L 4 54Q 0 54 0 50Z" stroke="rgba(33,41,48,1)" stroke-width="2" fill-opacity="1" fill="#ffffff"></path><g id="SvgjsG1307"><text id="SvgjsText1308" font-family="微软雅黑" text-anchor="middle" font-size="13px" width="76px" fill="#323232" font-weight="400" align="middle" lineHeight="125%" anchor="middle" family="微软雅黑" size="13px" weight="400" font-style="" opacity="1" y="16.375" transform="rotate(0)"><tspan id="SvgjsTspan1309" dy="16" x="48"><tspan id="SvgjsTspan1310" style="text-decoration:;">load_clean</tspan></tspan></text></g></g><g id="SvgjsG1311" transform="translate(25.020203810471756,564.501927779271)"><path id="SvgjsPath1312" d="M 0 4Q 0 0 4 0L 92 0Q 96 0 96 4L 96 50Q 96 54 92 54L 4 54Q 0 54 0 50Z" stroke="rgba(33,41,48,1)" stroke-width="2" fill-opacity="1" fill="#ffffff"></path><g id="SvgjsG1313"><text id="SvgjsText1314" font-family="微软雅黑" text-anchor="middle" font-size="13px" width="76px" fill="#323232" font-weight="400" align="middle" lineHeight="125%" anchor="middle" family="微软雅黑" size="13px" weight="400" font-style="" opacity="1" y="16.375" transform="rotate(0)"><tspan id="SvgjsTspan1315" dy="16" x="48"><tspan id="SvgjsTspan1316" style="text-decoration:;">log</tspan></tspan></text></g></g><g id="SvgjsG1317" transform="translate(493.62020991398737,250.50192777927106)"><path id="SvgjsPath1318" d="M 0 4Q 0 0 4 0L 92 0Q 96 0 96 4L 96 50Q 96 54 92 54L 4 54Q 0 54 0 50Z" stroke="rgba(33,41,48,1)" stroke-width="2" fill-opacity="1" fill="#ffffff"></path><g id="SvgjsG1319"><text id="SvgjsText1320" font-family="微软雅黑" text-anchor="middle" font-size="13px" width="76px" fill="#323232" font-weight="400" align="middle" lineHeight="125%" anchor="middle" family="微软雅黑" size="13px" weight="400" font-style="" opacity="1" y="16.375" transform="rotate(0)"><tspan id="SvgjsTspan1321" dy="16" x="48"><tspan id="SvgjsTspan1322" style="text-decoration:;">raspi_drive</tspan></tspan></text></g></g><g id="SvgjsG1323" transform="translate(493.62020991398737,329.00192777927106)"><path id="SvgjsPath1324" d="M 0 4Q 0 0 4 0L 92 0Q 96 0 96 4L 96 50Q 96 54 92 54L 4 54Q 0 54 0 50Z" stroke="rgba(33,41,48,1)" stroke-width="2" fill-opacity="1" fill="#ffffff"></path><g id="SvgjsG1325"><text id="SvgjsText1326" font-family="微软雅黑" text-anchor="middle" font-size="13px" width="76px" fill="#323232" font-weight="400" align="middle" lineHeight="125%" anchor="middle" family="微软雅黑" size="13px" weight="400" font-style="" opacity="1" y="16.375" transform="rotate(0)"><tspan id="SvgjsTspan1327" dy="16" x="48"><tspan id="SvgjsTspan1328" style="text-decoration:;">rsignal</tspan></tspan></text></g></g><g id="SvgjsG1329" transform="translate(493.62020991398737,407.50192777927106)"><path id="SvgjsPath1330" d="M 0 4Q 0 0 4 0L 92 0Q 96 0 96 4L 96 50Q 96 54 92 54L 4 54Q 0 54 0 50Z" stroke="rgba(33,41,48,1)" stroke-width="2" fill-opacity="1" fill="#ffffff"></path><g id="SvgjsG1331"><text id="SvgjsText1332" font-family="微软雅黑" text-anchor="middle" font-size="13px" width="76px" fill="#323232" font-weight="400" align="middle" lineHeight="125%" anchor="middle" family="微软雅黑" size="13px" weight="400" font-style="" opacity="1" y="16.375" transform="rotate(0)"><tspan id="SvgjsTspan1333" dy="16" x="48"><tspan id="SvgjsTspan1334" style="text-decoration:;">rssl</tspan></tspan></text></g></g><g id="SvgjsG1335" transform="translate(998.2201854999249,250.50192777927106)"><path id="SvgjsPath1336" d="M 0 4Q 0 0 4 0L 92 0Q 96 0 96 4L 96 50Q 96 54 92 54L 4 54Q 0 54 0 50Z" stroke="rgba(33,41,48,1)" stroke-width="2" fill-opacity="1" fill="#ffffff"></path><g id="SvgjsG1337"><text id="SvgjsText1338" font-family="微软雅黑" text-anchor="middle" font-size="13px" width="76px" fill="#323232" font-weight="400" align="middle" lineHeight="125%" anchor="middle" family="微软雅黑" size="13px" weight="400" font-style="" opacity="1" y="16.375" transform="rotate(0)"><tspan id="SvgjsTspan1339" dy="16" x="48"><tspan id="SvgjsTspan1340" style="text-decoration:;">socket_fd</tspan></tspan></text></g></g><g id="SvgjsG1341" transform="translate(998.2201854999249,564.501927779271)"><path id="SvgjsPath1342" d="M 0 4Q 0 0 4 0L 92 0Q 96 0 96 4L 96 50Q 96 54 92 54L 4 54Q 0 54 0 50Z" stroke="rgba(33,41,48,1)" stroke-width="2" fill-opacity="1" fill="#ffffff"></path><g id="SvgjsG1343"><text id="SvgjsText1344" font-family="微软雅黑" text-anchor="middle" font-size="13px" width="76px" fill="#323232" font-weight="400" align="middle" lineHeight="125%" anchor="middle" family="微软雅黑" size="13px" weight="400" font-style="" opacity="1" y="16.375" transform="rotate(0)"><tspan id="SvgjsTspan1345" dy="16" x="48"><tspan id="SvgjsTspan1346" style="text-decoration:;">types</tspan></tspan></text></g></g><g id="SvgjsG1347" transform="translate(493.62020991398737,643.001927779271)"><path id="SvgjsPath1348" d="M 0 4Q 0 0 4 0L 92 0Q 96 0 96 4L 96 50Q 96 54 92 54L 4 54Q 0 54 0 50Z" stroke="rgba(33,41,48,1)" stroke-width="2" fill-opacity="1" fill="#ffffff"></path><g id="SvgjsG1349"><text id="SvgjsText1350" font-family="微软雅黑" text-anchor="middle" font-size="13px" width="76px" fill="#323232" font-weight="400" align="middle" lineHeight="125%" anchor="middle" family="微软雅黑" size="13px" weight="400" font-style="" opacity="1" y="16.375" transform="rotate(0)"><tspan id="SvgjsTspan1351" dy="16" x="48"><tspan id="SvgjsTspan1352" style="text-decoration:;">self_sql</tspan></tspan></text></g></g><g id="SvgjsG1353" transform="translate(998.2201854999249,172.00192777927106)"><path id="SvgjsPath1354" d="M 0 4Q 0 0 4 0L 92 0Q 96 0 96 4L 96 50Q 96 54 92 54L 4 54Q 0 54 0 50Z" stroke="rgba(33,41,48,1)" stroke-width="2" fill-opacity="1" fill="#ffffff"></path><g id="SvgjsG1355"><text id="SvgjsText1356" font-family="微软雅黑" text-anchor="middle" font-size="13px" width="76px" fill="#323232" font-weight="400" align="middle" lineHeight="125%" anchor="middle" family="微软雅黑" size="13px" weight="400" font-style="" opacity="1" y="16.375" transform="rotate(0)"><tspan id="SvgjsTspan1357" dy="16" x="48"><tspan id="SvgjsTspan1358" style="text-decoration:;">self_thread</tspan></tspan></text></g></g><g id="SvgjsG1359" transform="translate(998.2201854999249,329.00192777927106)"><path id="SvgjsPath1360" d="M 0 4Q 0 0 4 0L 92 0Q 96 0 96 4L 96 50Q 96 54 92 54L 4 54Q 0 54 0 50Z" stroke="rgba(33,41,48,1)" stroke-width="2" fill-opacity="1" fill="#ffffff"></path><g id="SvgjsG1361"><text id="SvgjsText1362" font-family="微软雅黑" text-anchor="middle" font-size="13px" width="76px" fill="#323232" font-weight="400" align="middle" lineHeight="125%" anchor="middle" family="微软雅黑" size="13px" weight="400" font-style="" opacity="1" y="16.375" transform="rotate(0)"><tspan id="SvgjsTspan1363" dy="16" x="48"><tspan id="SvgjsTspan1364" style="text-decoration:;">sql_pool</tspan></tspan></text></g></g><g id="SvgjsG1365" transform="translate(998.2201854999249,486.00192777927106)"><path id="SvgjsPath1366" d="M 0 4Q 0 0 4 0L 92 0Q 96 0 96 4L 96 50Q 96 54 92 54L 4 54Q 0 54 0 50Z" stroke="rgba(33,41,48,1)" stroke-width="2" fill-opacity="1" fill="#ffffff"></path><g id="SvgjsG1367"><text id="SvgjsText1368" font-family="微软雅黑" text-anchor="middle" font-size="13px" width="76px" fill="#323232" font-weight="400" align="middle" lineHeight="125%" anchor="middle" family="微软雅黑" size="13px" weight="400" font-style="" opacity="1" y="16.375" transform="rotate(0)"><tspan id="SvgjsTspan1369" dy="16" x="48"><tspan id="SvgjsTspan1370" style="text-decoration:;">thread_pool</tspan></tspan></text></g></g><g id="SvgjsG1371" transform="translate(998.2201854999249,643.001927779271)"><path id="SvgjsPath1372" d="M 0 4Q 0 0 4 0L 92 0Q 96 0 96 4L 96 50Q 96 54 92 54L 4 54Q 0 54 0 50Z" stroke="rgba(33,41,48,1)" stroke-width="2" fill-opacity="1" fill="#ffffff"></path><g id="SvgjsG1373"><text id="SvgjsText1374" font-family="微软雅黑" text-anchor="middle" font-size="13px" width="76px" fill="#323232" font-weight="400" align="middle" lineHeight="125%" anchor="middle" family="微软雅黑" size="13px" weight="400" font-style="" opacity="1" y="16.375" transform="rotate(0)"><tspan id="SvgjsTspan1375" dy="16" x="48"><tspan id="SvgjsTspan1376" style="text-decoration:;">web_http</tspan></tspan></text></g></g><g id="SvgjsG1377" transform="translate(493.62020991398737,172.00192777927106)"><path id="SvgjsPath1378" d="M 0 4Q 0 0 4 0L 92 0Q 96 0 96 4L 96 50Q 96 54 92 54L 4 54Q 0 54 0 50Z" stroke="rgba(33,41,48,1)" stroke-width="2" fill-opacity="1" fill="#ffffff"></path><g id="SvgjsG1379"><text id="SvgjsText1380" font-family="微软雅黑" text-anchor="middle" font-size="13px" width="76px" fill="#323232" font-weight="400" align="middle" lineHeight="125%" anchor="middle" family="微软雅黑" size="13px" weight="400" font-style="" opacity="1" y="16.375" transform="rotate(0)"><tspan id="SvgjsTspan1381" dy="16" x="48"><tspan id="SvgjsTspan1382" style="text-decoration:;">rain_server</tspan></tspan></text></g></g><g id="SvgjsG1383" transform="translate(493.62020991398737,564.501927779271)"><path id="SvgjsPath1384" d="M 0 4Q 0 0 4 0L 92 0Q 96 0 96 4L 96 50Q 96 54 92 54L 4 54Q 0 54 0 50Z" stroke="rgba(33,41,48,1)" stroke-width="2" fill-opacity="1" fill="#ffffff"></path><g id="SvgjsG1385"><text id="SvgjsText1386" font-family="微软雅黑" text-anchor="middle" font-size="13px" width="76px" fill="#323232" font-weight="400" align="middle" lineHeight="125%" anchor="middle" family="微软雅黑" size="13px" weight="400" font-style="" opacity="1" y="16.375" transform="rotate(0)"><tspan id="SvgjsTspan1387" dy="16" x="48"><tspan id="SvgjsTspan1388" style="text-decoration:;">run_server</tspan></tspan></text></g></g><g id="SvgjsG1389" transform="translate(25.020203810471756,643.001927779271)"><path id="SvgjsPath1390" d="M 0 4Q 0 0 4 0L 92 0Q 96 0 96 4L 96 50Q 96 54 92 54L 4 54Q 0 54 0 50Z" stroke="rgba(33,41,48,1)" stroke-width="2" fill-opacity="1" fill="#ffffff"></path><g id="SvgjsG1391"><text id="SvgjsText1392" font-family="微软雅黑" text-anchor="middle" font-size="13px" width="76px" fill="#323232" font-weight="400" align="middle" lineHeight="125%" anchor="middle" family="微软雅黑" size="13px" weight="400" font-style="" opacity="1" y="16.375" transform="rotate(0)"><tspan id="SvgjsTspan1393" dy="16" x="48"><tspan id="SvgjsTspan1394" style="text-decoration:;">rain_client</tspan></tspan></text></g></g><g id="SvgjsG1395" transform="translate(998.2201854999249,407.50192777927106)"><path id="SvgjsPath1396" d="M 0 4Q 0 0 4 0L 92 0Q 96 0 96 4L 96 50Q 96 54 92 54L 4 54Q 0 54 0 50Z" stroke="rgba(33,41,48,1)" stroke-width="2" fill-opacity="1" fill="#ffffff"></path><g id="SvgjsG1397"><text id="SvgjsText1398" font-family="微软雅黑" text-anchor="middle" font-size="13px" width="76px" fill="#323232" font-weight="400" align="middle" lineHeight="125%" anchor="middle" family="微软雅黑" size="13px" weight="400" font-style="" opacity="1" y="16.375" transform="rotate(0)"><tspan id="SvgjsTspan1399" dy="16" x="48"><tspan id="SvgjsTspan1400" style="text-decoration:;">ssl_pool</tspan></tspan></text></g></g><g id="SvgjsG1401" transform="translate(493.62020991398737,25.00192467982953)"><path id="SvgjsPath1402" d="M 0 0L 210 0L 210 37.00000309944153L 0 37.00000309944153Z" stroke="none" fill="none"></path><g id="SvgjsG1403"><text id="SvgjsText1404" font-family="微软雅黑" text-anchor="middle" font-size="30px" width="210px" fill="#323232" font-weight="400" align="middle" lineHeight="125%" anchor="middle" family="微软雅黑" size="30px" weight="400" font-style="" opacity="1" y="-7.249998450279236" transform="rotate(0)"><tspan id="SvgjsTspan1405" dy="37" x="105"><tspan id="SvgjsTspan1406" style="text-decoration:;font-weight: bold;">自建静态库列表</tspan></tspan></text></g></g><g id="SvgjsG1407" transform="translate(141.02020381047177,179.00192777927106)"><path id="SvgjsPath1408" d="M 0 0L 192.39999389648438 0L 192.39999389648438 40L 0 40Z" stroke="none" fill="none"></path><g id="SvgjsG1409"><text id="SvgjsText1410" font-family="苍耳与墨" text-anchor="middle" font-size="17px" width="193px" fill="#323232" font-weight="400" align="middle" lineHeight="125%" anchor="middle" family="苍耳与墨" size="17px" weight="400" font-style="" opacity="1" y="5.375" transform="rotate(0)"><tspan id="SvgjsTspan1411" dy="21" x="96.5"><tspan id="SvgjsTspan1412" style="text-decoration:;">常见的字符串处理函数库</tspan></tspan></text></g></g><g id="SvgjsG1413" transform="translate(141.02020381047177,257.50192777927106)"><path id="SvgjsPath1414" d="M 0 0L 177.39999389648438 0L 177.39999389648438 40L 0 40Z" stroke="none" fill="none"></path><g id="SvgjsG1415"><text id="SvgjsText1416" font-family="苍耳与墨" text-anchor="middle" font-size="17px" width="178px" fill="#323232" font-weight="400" align="middle" lineHeight="125%" anchor="middle" family="苍耳与墨" size="17px" weight="400" font-style="" opacity="1" y="5.375" transform="rotate(0)"><tspan id="SvgjsTspan1417" dy="21" x="89"><tspan id="SvgjsTspan1418" style="text-decoration:;">配置文件的定义函数库</tspan></tspan></text></g></g><g id="SvgjsG1419" transform="translate(141.02020381047177,336.00192777927106)"><path id="SvgjsPath1420" d="M 0 0L 192.39999389648438 0L 192.39999389648438 40L 0 40Z" stroke="none" fill="none"></path><g id="SvgjsG1421"><text id="SvgjsText1422" font-family="苍耳与墨" text-anchor="middle" font-size="17px" width="193px" fill="#323232" font-weight="400" align="middle" lineHeight="125%" anchor="middle" family="苍耳与墨" size="17px" weight="400" font-style="" opacity="1" y="5.375" transform="rotate(0)"><tspan id="SvgjsTspan1423" dy="21" x="96.5"><tspan id="SvgjsTspan1424" style="text-decoration:;">Unix文件基础操作函数库</tspan></tspan></text></g></g><g id="SvgjsG1425" transform="translate(141.02020381047177,414.50192777927106)"><path id="SvgjsPath1426" d="M 0 0L 172.89999389648438 0L 172.89999389648438 40L 0 40Z" stroke="none" fill="none"></path><g id="SvgjsG1427"><text id="SvgjsText1428" font-family="苍耳与墨" text-anchor="middle" font-size="17px" width="173px" fill="#323232" font-weight="400" align="middle" lineHeight="125%" anchor="middle" family="苍耳与墨" size="17px" weight="400" font-style="" opacity="1" y="5.375" transform="rotate(0)"><tspan id="SvgjsTspan1429" dy="21" x="86.5"><tspan id="SvgjsTspan1430" style="text-decoration:;">全局变量与宏定义符号</tspan></tspan></text></g></g><g id="SvgjsG1431" transform="translate(141.02020381047177,493.00192777927106)"><path id="SvgjsPath1432" d="M 0 0L 255.20001220703125 0L 255.20001220703125 40L 0 40Z" stroke="none" fill="none"></path><g id="SvgjsG1433"><text id="SvgjsText1434" font-family="苍耳与墨" text-anchor="middle" font-size="17px" width="256px" fill="#323232" font-weight="400" align="middle" lineHeight="125%" anchor="middle" family="苍耳与墨" size="17px" weight="400" font-style="" opacity="1" y="5.375" transform="rotate(0)"><tspan id="SvgjsTspan1435" dy="21" x="128"><tspan id="SvgjsTspan1436" style="text-decoration:;">程序预处理函数与退出清理函数库</tspan></tspan></text></g></g><g id="SvgjsG1437" transform="translate(141.02020381047177,571.501927779271)"><path id="SvgjsPath1438" d="M 0 0L 285.3999938964844 0L 285.3999938964844 40L 0 40Z" stroke="none" fill="none"></path><g id="SvgjsG1439"><text id="SvgjsText1440" font-family="苍耳与墨" text-anchor="middle" font-size="17px" width="286px" fill="#323232" font-weight="400" align="middle" lineHeight="125%" anchor="middle" family="苍耳与墨" size="17px" weight="400" font-style="" opacity="1" y="5.375" transform="rotate(0)"><tspan id="SvgjsTspan1441" dy="21" x="143"><tspan id="SvgjsTspan1442" style="text-decoration:;">Unix系统日志syslog函数, 程序输出库</tspan></tspan></text></g></g><g id="SvgjsG1443" transform="translate(141.02020381047177,650.001927779271)"><path id="SvgjsPath1444" d="M 0 0L 269.3999938964844 0L 269.3999938964844 40L 0 40Z" stroke="none" fill="none"></path><g id="SvgjsG1445"><text id="SvgjsText1446" font-family="苍耳与墨" text-anchor="middle" font-size="17px" width="270px" fill="#323232" font-weight="400" align="middle" lineHeight="125%" anchor="middle" family="苍耳与墨" size="17px" weight="400" font-style="" opacity="1" y="5.375" transform="rotate(0)"><tspan id="SvgjsTspan1447" dy="21" x="135"><tspan id="SvgjsTspan1448" style="text-decoration:;">客户端主程序, 运行于树莓派客户端</tspan></tspan></text></g></g><g id="SvgjsG1449" transform="translate(610.0202038104718,179.00192777927106)"><path id="SvgjsPath1450" d="M 0 0L 307.3999938964844 0L 307.3999938964844 40L 0 40Z" stroke="none" fill="none"></path><g id="SvgjsG1451"><text id="SvgjsText1452" font-family="苍耳与墨" text-anchor="middle" font-size="17px" width="308px" fill="#323232" font-weight="400" align="middle" lineHeight="125%" anchor="middle" family="苍耳与墨" size="17px" weight="400" font-style="" opacity="1" y="5.375" transform="rotate(0)"><tspan id="SvgjsTspan1453" dy="21" x="154"><tspan id="SvgjsTspan1454" style="text-decoration:;">服务器主程序, 运行于任意Linux云服务器</tspan></tspan></text></g></g><g id="SvgjsG1455" transform="translate(610.0202038104718,257.50192777927106)"><path id="SvgjsPath1456" d="M 0 0L 174.39999389648438 0L 174.39999389648438 40L 0 40Z" stroke="none" fill="none"></path><g id="SvgjsG1457"><text id="SvgjsText1458" font-family="苍耳与墨" text-anchor="middle" font-size="17px" width="175px" fill="#323232" font-weight="400" align="middle" lineHeight="125%" anchor="middle" family="苍耳与墨" size="17px" weight="400" font-style="" opacity="1" y="5.375" transform="rotate(0)"><tspan id="SvgjsTspan1459" dy="21" x="87.5"><tspan id="SvgjsTspan1460" style="text-decoration:;">树莓派外部硬件驱动库</tspan></tspan></text></g></g><g id="SvgjsG1461" transform="translate(610.0202038104718,336.00192777927106)"><path id="SvgjsPath1462" d="M 0 0L 194.39999389648438 0L 194.39999389648438 40L 0 40Z" stroke="none" fill="none"></path><g id="SvgjsG1463"><text id="SvgjsText1464" font-family="苍耳与墨" text-anchor="middle" font-size="17px" width="195px" fill="#323232" font-weight="400" align="middle" lineHeight="125%" anchor="middle" family="苍耳与墨" size="17px" weight="400" font-style="" opacity="1" y="5.375" transform="rotate(0)"><tspan id="SvgjsTspan1465" dy="21" x="97.5"><tspan id="SvgjsTspan1466" style="text-decoration:;">Unix信号注册处理函数库</tspan></tspan></text></g></g><g id="SvgjsG1467" transform="translate(610.0202038104718,414.50192777927106)"><path id="SvgjsPath1468" d="M 0 0L 168.39999389648438 0L 168.39999389648438 40L 0 40Z" stroke="none" fill="none"></path><g id="SvgjsG1469"><text id="SvgjsText1470" font-family="苍耳与墨" text-anchor="middle" font-size="17px" width="169px" fill="#323232" font-weight="400" align="middle" lineHeight="125%" anchor="middle" family="苍耳与墨" size="17px" weight="400" font-style="" opacity="1" y="5.375" transform="rotate(0)"><tspan id="SvgjsTspan1471" dy="21" x="84.5"><tspan id="SvgjsTspan1472" style="text-decoration:;">SSL_CTX基础操作库</tspan></tspan></text></g></g><g id="SvgjsG1473" transform="translate(610.0202038104718,493.00192777927106)"><path id="SvgjsPath1474" d="M 0 0L 174.39999389648438 0L 174.39999389648438 40L 0 40Z" stroke="none" fill="none"></path><g id="SvgjsG1475"><text id="SvgjsText1476" font-family="苍耳与墨" text-anchor="middle" font-size="17px" width="175px" fill="#323232" font-weight="400" align="middle" lineHeight="125%" anchor="middle" family="苍耳与墨" size="17px" weight="400" font-style="" opacity="1" y="5.375" transform="rotate(0)"><tspan id="SvgjsTspan1477" dy="21" x="87.5"><tspan id="SvgjsTspan1478" style="text-decoration:;">客户端主要运行函数库</tspan></tspan></text></g></g><g id="SvgjsG1479" transform="translate(610.0202038104718,571.501927779271)"><path id="SvgjsPath1480" d="M 0 0L 174.39999389648438 0L 174.39999389648438 40L 0 40Z" stroke="none" fill="none"></path><g id="SvgjsG1481"><text id="SvgjsText1482" font-family="苍耳与墨" text-anchor="middle" font-size="17px" width="175px" fill="#323232" font-weight="400" align="middle" lineHeight="125%" anchor="middle" family="苍耳与墨" size="17px" weight="400" font-style="" opacity="1" y="5.375" transform="rotate(0)"><tspan id="SvgjsTspan1483" dy="21" x="87.5"><tspan id="SvgjsTspan1484" style="text-decoration:;">服务器主要运行函数库</tspan></tspan></text></g></g><g id="SvgjsG1485" transform="translate(610.0202038104718,650.001927779271)"><path id="SvgjsPath1486" d="M 0 0L 159.39999389648438 0L 159.39999389648438 40L 0 40Z" stroke="none" fill="none"></path><g id="SvgjsG1487"><text id="SvgjsText1488" font-family="苍耳与墨" text-anchor="middle" font-size="17px" width="160px" fill="#323232" font-weight="400" align="middle" lineHeight="125%" anchor="middle" family="苍耳与墨" size="17px" weight="400" font-style="" opacity="1" y="5.375" transform="rotate(0)"><tspan id="SvgjsTspan1489" dy="21" x="80"><tspan id="SvgjsTspan1490" style="text-decoration:;">数据库自定义操作库</tspan></tspan></text></g></g><g id="SvgjsG1491" transform="translate(1114.0202038104717,179.00192777927106)"><path id="SvgjsPath1492" d="M 0 0L 288.00000762939453 0L 288.00000762939453 40L 0 40Z" stroke="none" fill="none"></path><g id="SvgjsG1493"><text id="SvgjsText1494" font-family="苍耳与墨" text-anchor="middle" font-size="17px" width="289px" fill="#323232" font-weight="400" align="middle" lineHeight="125%" anchor="middle" family="苍耳与墨" size="17px" weight="400" font-style="" opacity="1" y="5.375" transform="rotate(0)"><tspan id="SvgjsTspan1495" dy="21" x="144.5"><tspan id="SvgjsTspan1496" style="text-decoration:;">POSIX线程基础操作, 互斥量基础操作</tspan></tspan></text></g></g><g id="SvgjsG1497" transform="translate(1114.0202038104717,257.50192777927106)"><path id="SvgjsPath1498" d="M 0 0L 246 0L 246 40L 0 40Z" stroke="none" fill="none"></path><g id="SvgjsG1499"><text id="SvgjsText1500" font-family="苍耳与墨" text-anchor="middle" font-size="17px" width="246px" fill="#323232" font-weight="400" align="middle" lineHeight="125%" anchor="middle" family="苍耳与墨" size="17px" weight="400" font-style="" opacity="1" y="5.375" transform="rotate(0)"><tspan id="SvgjsTspan1501" dy="21" x="123"><tspan id="SvgjsTspan1502" style="text-decoration:;">Unix网络套接字常见操作函数库</tspan></tspan></text></g></g><g id="SvgjsG1503" transform="translate(1114.0202038104717,336.00192777927106)"><path id="SvgjsPath1504" d="M 0 0L 157 0L 157 40L 0 40Z" stroke="none" fill="none"></path><g id="SvgjsG1505"><text id="SvgjsText1506" font-family="苍耳与墨" text-anchor="middle" font-size="17px" width="157px" fill="#323232" font-weight="400" align="middle" lineHeight="125%" anchor="middle" family="苍耳与墨" size="17px" weight="400" font-style="" opacity="1" y="5.375" transform="rotate(0)"><tspan id="SvgjsTspan1507" dy="21" x="78.5"><tspan id="SvgjsTspan1508" style="text-decoration:;">数据库连接池函数库</tspan></tspan></text></g></g><g id="SvgjsG1509" transform="translate(1114.0202038104717,414.50192777927106)"><path id="SvgjsPath1510" d="M 0 0L 190 0L 190 40L 0 40Z" stroke="none" fill="none"></path><g id="SvgjsG1511"><text id="SvgjsText1512" font-family="苍耳与墨" text-anchor="middle" font-size="17px" width="190px" fill="#323232" font-weight="400" align="middle" lineHeight="125%" anchor="middle" family="苍耳与墨" size="17px" weight="400" font-style="" opacity="1" y="5.375" transform="rotate(0)"><tspan id="SvgjsTspan1513" dy="21" x="95"><tspan id="SvgjsTspan1514" style="text-decoration:;">SSL套接字连接池函数库</tspan></tspan></text></g></g><g id="SvgjsG1515" transform="translate(1114.0202038104717,493.00192777927106)"><path id="SvgjsPath1516" d="M 0 0L 166.20001220703125 0L 166.20001220703125 40L 0 40Z" stroke="none" fill="none"></path><g id="SvgjsG1517"><text id="SvgjsText1518" font-family="苍耳与墨" text-anchor="middle" font-size="17px" width="167px" fill="#323232" font-weight="400" align="middle" lineHeight="125%" anchor="middle" family="苍耳与墨" size="17px" weight="400" font-style="" opacity="1" y="5.375" transform="rotate(0)"><tspan id="SvgjsTspan1519" dy="21" x="83.5"><tspan id="SvgjsTspan1520" style="text-decoration:;">POSIX线程池函数库</tspan></tspan></text></g></g><g id="SvgjsG1521" transform="translate(1114.0202038104717,571.501927779271)"><path id="SvgjsPath1522" d="M 0 0L 304.20001220703125 0L 304.20001220703125 40L 0 40Z" stroke="none" fill="none"></path><g id="SvgjsG1523"><text id="SvgjsText1524" font-family="苍耳与墨" text-anchor="middle" font-size="17px" width="305px" fill="#323232" font-weight="400" align="middle" lineHeight="125%" anchor="middle" family="苍耳与墨" size="17px" weight="400" font-style="" opacity="1" y="5.375" transform="rotate(0)"><tspan id="SvgjsTspan1525" dy="21" x="152.5"><tspan id="SvgjsTspan1526" style="text-decoration:;">各种结构体定义, 以及对应的操作函数库</tspan></tspan></text></g></g><g id="SvgjsG1527" transform="translate(1114.0202038104717,650.001927779271)"><path id="SvgjsPath1528" d="M 0 0L 346.20001220703125 0L 346.20001220703125 40L 0 40Z" stroke="none" fill="none"></path><g id="SvgjsG1529"><text id="SvgjsText1530" font-family="苍耳与墨" text-anchor="middle" font-size="17px" width="347px" fill="#323232" font-weight="400" align="middle" lineHeight="125%" anchor="middle" family="苍耳与墨" size="17px" weight="400" font-style="" opacity="1" y="5.375" transform="rotate(0)"><tspan id="SvgjsTspan1531" dy="21" x="173.5"><tspan id="SvgjsTspan1532" style="text-decoration:;">定义了HTTP请求报文的解析, 回复报文的组装</tspan></tspan></text></g></g></svg>